<?xml version="1.0" encoding="UTF-8"?>
<svg id="Layer_1" data-name="Layer 1" xmlns="http://www.w3.org/2000/svg" viewBox="0 0 1023 1537">
  <defs>
    <style>
      .cls-1 {
        fill: #b1ad9d;
      }
    </style>
  </defs>
  <path class="cls-1" d="M272.34,859.18c-58.93,66.82-70.31,139.61-67.59,226.53-12.3-44.72-18.63-90.26-19.68-137.19-.92-41.03,7.18-78.44,24.25-115.04,16.99-36.43,39.01-67.24,67.72-95.81,67.2-66.89,146.41-118.55,232.88-157.52,42.52-19.16,81.62-40.25,121.31-63.95,63-37.62,104.38-98.76,117-171.32,6.73-38.71,6.97-75.88,5.57-116.14,22.99,77.46,35.36,163.3,15.99,242.53-7.92,32.41-22.77,59.79-44.55,84.43-39.25,44.42-102.66,78.09-155.76,106.32l-143.23,76.15c-42.21,22.44-79.43,50.64-115.21,82l-38.68,39.01Z"/>
  <path class="cls-1" d="M245.19,1397.31c-10.14-36.07-14.94-73.85-18.24-112.57-4.22-77.59,1.67-145.17,53.95-204.6,25.07-28.5,53.86-50.83,86.48-70.62l103.58-55.47c47.18-25.27,93.46-48.19,138.86-76.59,60.5-37.84,109.26-72.18,151.21-130.91,43.83-61.35,54.9-119.73,55.32-195.81,24.64,76.3,31.13,157.06,4.31,233.25-11.19,31.79-29.62,58.41-51.25,83.78-55.14,64.67-156.94,127.37-233.94,164.82l-107.11,52.1c-34.4,16.73-66,35.38-95.46,59.58-36.27,28.73-61.48,66.08-74.75,110.59-13.98,46.09-15.1,91.96-12.94,142.44Z"/>
  <path class="cls-1" d="M458.04,440.76c-19.39,22.92-23.91,51.53-19.49,81.1-31.71-75.9-2.02-175.12,67.35-221.72l74.63-50.13c40.13-26.96,68.14-61.64,81.04-110.32,2.18,34.4.8,67.8-4.85,101.77-9.62,57.85-36.95,93.38-87.68,121.82-29.82,16.71-58.8,32.37-86.07,52.82-9.51,6.96-17.3,14.67-24.93,24.65Z"/>
  <path class="cls-1" d="M546.25,847.56c-35.46,8.16-55.45,42.88-76.5,21.48l-44.23-44.96c13.53-1.88,23.19-4.91,32.6-11.79l22.24-16.25c5.31-3.88,13.7-.44,18.33,4.17l47.55,47.34Z"/>
  <path class="cls-1" d="M633.26,784.95c-36.79,8.2-54.49,43.02-74.22,23.04l-41.6-42.1c10.06-.8,19.87-2.66,28.3-9.04l24.06-18.21c6.48-4.48,14.7-3.06,20.17,2.48l43.28,43.84Z"/>
</svg>